<?xml version="1.0" encoding="utf-8"?>
<!-- Generator: Adobe Illustrator 21.0.2, SVG Export Plug-In . SVG Version: 6.00 Build 0)  -->
<svg version="1.1" id="Layer_1" xmlns="http://www.w3.org/2000/svg" xmlns:xlink="http://www.w3.org/1999/xlink" x="0px" y="0px"
	 viewBox="0 0 1366 768.8" style="enable-background:new 0 0 1366 768.8;" xml:space="preserve">
<style type="text/css">
	.st0{fill:url(#SVGID_1_);}
	.st1{fill:none;}
	.st2{opacity:0.5;fill:url(#SVGID_2_);enable-background:new    ;}
	.st3{fill:#A566FF;}
	.st4{fill:#8946F2;}
	.st5{opacity:0.75;fill:#E5D4FF;enable-background:new    ;}
	.st6{opacity:0.7;fill:#6A36CE;enable-background:new    ;}
	.st7{fill:url(#SVGID_3_);}
	.st8{fill:url(#SVGID_4_);}
	.st9{fill:url(#SVGID_5_);}
</style>
<title>cube-center</title>
<radialGradient id="SVGID_1_" cx="546.9471" cy="152.1284" r="286.9088" gradientTransform="matrix(0.866 0.5 0.8606 -0.4969 -192.2999 12.8859)" gradientUnits="userSpaceOnUse">
	<stop  offset="9.901000e-02" style="stop-color:#FFFFFF;stop-opacity:0"/>
	<stop  offset="0.1156" style="stop-color:#EADBFF;stop-opacity:0.1892"/>
	<stop  offset="0.1343" style="stop-color:#D5B7FF;stop-opacity:0.3739"/>
	<stop  offset="0.153" style="stop-color:#C49AFF;stop-opacity:0.5273"/>
	<stop  offset="0.1713" style="stop-color:#B683FF;stop-opacity:0.6465"/>
	<stop  offset="0.1892" style="stop-color:#AD73FF;stop-opacity:0.7315"/>
	<stop  offset="0.2065" style="stop-color:#A769FF;stop-opacity:0.7827"/>
	<stop  offset="0.2224" style="stop-color:#A566FF;stop-opacity:0.8"/>
	<stop  offset="0.2323" style="stop-color:#9F62F6;stop-opacity:0.7717"/>
	<stop  offset="0.3016" style="stop-color:#7A4BBD;stop-opacity:0.5921"/>
	<stop  offset="0.3753" style="stop-color:#59378A;stop-opacity:0.4329"/>
	<stop  offset="1" style="stop-color:#09060F;stop-opacity:4.587000e-02"/>
</radialGradient>
<path class="st0" d="M660.7,354.2c-136.4,78.7-358.2,78.3-495.4-0.9C28.1,274.1,27.4,146,163.8,67.3C300.2-11.4,522-11,659.2,68.2
	S797.1,275.5,660.7,354.2z"/>
<rect class="st1" width="1366" height="768.8"/>
<linearGradient id="SVGID_2_" gradientUnits="userSpaceOnUse" x1="925.6904" y1="537.863" x2="377.217" y2="227.0611" gradientTransform="matrix(1 0 0 1 0 -24)">
	<stop  offset="0" style="stop-color:#000000;stop-opacity:0"/>
	<stop  offset="0.3707" style="stop-color:#060508;stop-opacity:0.145"/>
	<stop  offset="0.8635" style="stop-color:#171220;stop-opacity:0.5546"/>
	<stop  offset="1" style="stop-color:#1D1729;stop-opacity:0.7"/>
</linearGradient>
<polygon class="st2" points="878,566.2 304.2,227.8 416.9,146.2 1026.2,492.3 "/>
<polygon class="st3" points="405.4,145.1 372.1,125.9 372.1,164.4 405.4,183.6 438.6,164.4 438.6,125.9 "/>
<polygon class="st3" points="405.4,183.6 372.1,164.4 372.1,125.9 405.4,145.1 "/>
<polygon class="st4" points="438.6,164.4 405.4,183.6 405.4,145.1 438.6,125.9 "/>
<polygon class="st3" points="405.4,145.1 372.1,125.9 405.4,106.7 438.6,125.9 "/>
<polygon class="st5" points="405.4,145.1 373.5,126.8 372.1,127.6 405.4,146.8 438.6,127.6 437.2,126.8 "/>
<polygon class="st3" points="448.6,169.8 415.3,150.6 415.3,189 448.6,208.2 481.9,189 481.9,150.6 "/>
<polygon class="st3" points="448.6,208.2 415.3,189 415.3,150.6 448.6,169.8 "/>
<polygon class="st4" points="481.9,189 448.6,208.2 448.6,169.8 481.9,150.6 "/>
<polygon class="st3" points="448.6,169.8 415.3,150.6 448.6,131.4 481.9,150.6 "/>
<polygon class="st5" points="448.6,169.8 416.7,151.4 415.3,152.3 448.6,171.5 481.9,152.3 480.4,151.4 "/>
<polygon class="st3" points="491.8,194.5 458.5,175.3 458.5,213.7 491.8,232.9 525.1,213.7 525.1,175.3 "/>
<polygon class="st3" points="491.8,232.9 458.5,213.7 458.5,175.3 491.8,194.5 "/>
<polygon class="st4" points="525.1,213.7 491.8,232.9 491.8,194.5 525.1,175.3 "/>
<polygon class="st3" points="491.8,194.5 458.5,175.3 491.8,156.1 525.1,175.3 "/>
<polygon class="st5" points="491.8,194.5 460,176.1 458.5,176.9 491.8,196.1 525.1,176.9 525.1,175.3 "/>
<polygon class="st3" points="362.1,171.5 328.8,152.3 328.8,190.7 362.1,209.9 395.4,190.7 395.4,152.3 "/>
<polygon class="st3" points="362.1,209.9 328.8,190.7 328.8,152.3 362.1,171.5 "/>
<polygon class="st4" points="395.4,190.7 362.1,209.9 362.1,171.5 395.4,152.3 "/>
<polygon class="st3" points="362.1,171.5 328.8,152.3 362.1,133.1 395.4,152.3 "/>
<polygon class="st5" points="362.1,171.5 330.3,153.1 328.8,153.9 362.1,173.1 395.4,153.9 394,153.1 "/>
<polygon class="st3" points="405.4,196.1 372.1,176.9 372.1,215.4 405.4,234.6 438.6,215.4 438.6,176.9 "/>
<polygon class="st3" points="405.4,234.6 372.1,215.4 372.1,176.9 405.4,196.1 "/>
<polygon class="st4" points="438.6,215.4 405.4,234.6 405.4,196.1 438.6,176.9 "/>
<polygon class="st3" points="405.4,196.1 372.1,176.9 405.4,157.7 438.6,176.9 "/>
<polygon class="st5" points="405.4,196.1 373.5,177.8 372.1,178.6 405.4,197.8 438.6,178.6 437.2,177.8 "/>
<polygon class="st3" points="448.6,220.8 415.3,201.6 415.3,240 448.6,259.2 481.9,240 481.9,201.6 "/>
<polygon class="st3" points="448.6,259.2 415.3,240 415.3,201.6 448.6,220.8 "/>
<polygon class="st4" points="481.9,240 448.6,259.2 448.6,220.8 481.9,201.6 "/>
<polygon class="st3" points="448.6,220.8 415.3,201.6 448.6,182.4 481.9,201.6 "/>
<polygon class="st5" points="448.6,220.8 416.7,202.4 415.3,203.3 448.6,222.5 481.9,203.3 481.9,201.6 "/>
<polygon class="st3" points="318.9,197.8 285.6,178.6 285.6,217 318.9,236.2 352.2,217 352.2,178.6 "/>
<polygon class="st3" points="318.9,236.2 285.6,217 285.6,178.6 318.9,197.8 "/>
<polygon class="st4" points="352.2,217 318.9,236.2 318.9,197.8 352.2,178.6 "/>
<polygon class="st3" points="318.9,197.8 285.6,178.6 318.9,159.4 352.2,178.6 "/>
<polygon class="st5" points="318.9,197.8 285.6,178.6 285.6,180.3 318.9,199.5 352.2,180.3 350.7,179.4 "/>
<polygon class="st3" points="362.1,222.5 328.8,203.3 328.8,241.7 362.1,260.9 395.4,241.7 395.4,203.3 "/>
<polygon class="st3" points="362.1,260.9 328.8,241.7 328.8,203.3 362.1,222.5 "/>
<polygon class="st4" points="395.4,241.7 362.1,260.9 362.1,222.5 395.4,203.3 "/>
<polygon class="st3" points="362.1,222.5 328.8,203.3 362.1,184.1 395.4,203.3 "/>
<polygon class="st5" points="362.1,222.5 328.8,203.3 328.8,204.9 362.1,224.1 395.4,204.9 394,204.1 "/>
<polygon class="st3" points="405.4,247.1 372.1,227.9 372.1,266.4 405.4,285.6 438.6,266.4 438.6,227.9 "/>
<polygon class="st3" points="405.4,285.6 372.1,266.4 372.1,227.9 405.4,247.1 "/>
<polygon class="st4" points="438.6,266.4 405.4,285.6 405.4,247.1 438.6,227.9 "/>
<polygon class="st3" points="405.4,247.1 372.1,227.9 405.4,208.7 438.6,227.9 "/>
<polygon class="st5" points="405.4,247.1 372.1,227.9 372.1,229.6 405.4,248.8 438.6,229.6 438.6,227.9 "/>
<polygon class="st3" points="405.4,94.1 372.1,74.9 372.1,113.4 405.4,132.6 438.6,113.4 438.6,74.9 "/>
<polygon class="st3" points="405.4,132.6 372.1,113.4 372.1,74.9 405.4,94.1 "/>
<polygon class="st4" points="438.6,113.4 405.4,132.6 405.4,94.1 438.6,74.9 "/>
<polygon class="st3" points="405.4,94.1 372.1,74.9 405.4,55.7 438.6,74.9 "/>
<polygon class="st5" points="405.4,94.1 373.5,75.8 372.1,76.6 405.4,95.8 438.6,76.6 437.2,75.8 "/>
<polygon class="st6" points="405.4,240.9 382.6,227.8 405.4,214.7 428.1,227.8 "/>
<polygon class="st6" points="362.1,216.2 339.4,203.1 362.1,190 384.8,203.1 "/>
<polygon class="st6" points="448.6,214.6 425.9,201.4 448.6,188.3 471.3,201.4 "/>
<polygon class="st6" points="491.9,188.5 469.2,175.4 491.9,162.3 514.6,175.4 "/>
<polygon class="st6" points="318.9,191.6 296.2,178.4 318.9,165.3 341.6,178.4 "/>
<polygon class="st3" points="448.6,118.8 415.3,99.6 415.3,138 448.6,157.2 481.9,138 481.9,99.6 "/>
<polygon class="st3" points="448.6,157.2 415.3,138 415.3,99.6 448.6,118.8 "/>
<polygon class="st4" points="481.9,138 448.6,157.2 448.6,118.8 481.9,99.6 "/>
<polygon class="st3" points="448.6,118.8 415.3,99.6 448.6,80.4 481.9,99.6 "/>
<polygon class="st5" points="448.6,118.8 416.7,100.4 415.3,101.3 448.6,120.5 481.9,101.3 480.4,100.4 "/>
<polygon class="st3" points="491.8,143.5 458.5,124.3 458.5,162.7 491.8,181.9 525.1,162.7 525.1,124.3 "/>
<polygon class="st3" points="491.8,181.9 458.5,162.7 458.5,124.3 491.8,143.5 "/>
<polygon class="st4" points="525.1,162.7 491.8,181.9 491.8,143.5 525.1,124.3 "/>
<polygon class="st3" points="491.8,143.5 458.5,124.3 491.8,105.1 525.1,124.3 "/>
<polygon class="st5" points="491.8,143.5 460,125.1 458.5,125.9 491.8,145.1 525.1,125.9 525.1,124.3 "/>
<polygon class="st3" points="362.1,120.5 328.8,101.3 328.8,139.7 362.1,158.9 395.4,139.7 395.4,101.3 "/>
<polygon class="st3" points="362.1,158.9 328.8,139.7 328.8,101.3 362.1,120.5 "/>
<polygon class="st4" points="395.4,139.7 362.1,158.9 362.1,120.5 395.4,101.3 "/>
<polygon class="st3" points="362.1,120.5 328.8,101.3 362.1,82.1 395.4,101.3 "/>
<polygon class="st5" points="362.1,120.5 330.3,102.1 328.8,102.9 362.1,122.1 395.4,102.9 394,102.1 "/>
<polygon class="st3" points="405.4,145.1 372.1,125.9 372.1,164.4 405.4,183.6 438.6,164.4 438.6,125.9 "/>
<polygon class="st3" points="405.4,183.6 372.1,164.4 372.1,125.9 405.4,145.1 "/>
<polygon class="st4" points="438.6,164.4 405.4,183.6 405.4,145.1 438.6,125.9 "/>
<polygon class="st3" points="405.4,145.1 372.1,125.9 405.4,106.7 438.6,125.9 "/>
<polygon class="st5" points="405.4,145.1 373.5,126.8 372.1,127.6 405.4,146.8 438.6,127.6 437.2,126.8 "/>
<polygon class="st3" points="448.6,169.8 415.3,150.6 415.3,189 448.6,208.2 481.9,189 481.9,150.6 "/>
<polygon class="st3" points="448.6,208.2 415.3,189 415.3,150.6 448.6,169.8 "/>
<polygon class="st4" points="481.9,189 448.6,208.2 448.6,169.8 481.9,150.6 "/>
<polygon class="st3" points="448.6,169.8 415.3,150.6 448.6,131.4 481.9,150.6 "/>
<polygon class="st5" points="448.6,169.8 416.7,151.4 415.3,152.3 448.6,171.5 481.9,152.3 481.9,150.6 "/>
<polygon class="st3" points="318.9,146.8 285.6,127.6 285.6,166 318.9,185.2 352.2,166 352.2,127.6 "/>
<polygon class="st3" points="318.9,185.2 285.6,166 285.6,127.6 318.9,146.8 "/>
<polygon class="st4" points="352.2,166 318.9,185.2 318.9,146.8 352.2,127.6 "/>
<polygon class="st3" points="318.9,146.8 285.6,127.6 318.9,108.4 352.2,127.6 "/>
<polygon class="st5" points="318.9,146.8 287.1,128.4 285.6,129.3 318.9,148.5 352.2,129.3 350.7,128.4 "/>
<polygon class="st3" points="362.1,171.5 328.8,152.3 328.8,190.7 362.1,209.9 395.4,190.7 395.4,152.3 "/>
<polygon class="st3" points="362.1,209.9 328.8,190.7 328.8,152.3 362.1,171.5 "/>
<polygon class="st4" points="395.4,190.7 362.1,209.9 362.1,171.5 395.4,152.3 "/>
<polygon class="st3" points="362.1,171.5 328.8,152.3 362.1,133.1 395.4,152.3 "/>
<polygon class="st5" points="362.1,171.5 328.8,152.3 328.8,153.9 362.1,173.1 395.4,153.9 394,153.1 "/>
<polygon class="st3" points="405.4,196.1 372.1,176.9 372.1,215.4 405.4,234.6 438.6,215.4 438.6,176.9 "/>
<polygon class="st3" points="405.4,234.6 372.1,215.4 372.1,176.9 405.4,196.1 "/>
<polygon class="st4" points="438.6,215.4 405.4,234.6 405.4,196.1 438.6,176.9 "/>
<polygon class="st3" points="405.4,196.1 372.1,176.9 405.4,157.7 438.6,176.9 "/>
<polygon class="st5" points="405.4,196.1 372.1,176.9 372.1,178.6 405.4,197.8 438.6,178.6 438.6,176.9 "/>
<polygon class="st6" points="318.9,140.8 296.2,127.7 318.9,114.6 341.6,127.7 "/>
<polygon class="st3" points="405.4,43.1 372.1,23.9 372.1,62.4 405.4,81.6 438.6,62.4 438.6,23.9 "/>
<polygon class="st3" points="405.4,81.6 372.1,62.4 372.1,23.9 405.4,43.1 "/>
<polygon class="st4" points="438.6,62.4 405.4,81.6 405.4,43.1 438.6,23.9 "/>
<polygon class="st3" points="405.4,43.1 372.1,23.9 405.4,4.7 438.6,23.9 "/>
<polygon class="st5" points="405.4,43.1 372.1,23.9 372.1,25.6 405.4,44.8 438.6,25.6 438.6,23.9 "/>
<polygon class="st3" points="448.6,67.8 415.3,48.6 415.3,87 448.6,106.2 481.9,87 481.9,48.6 "/>
<polygon class="st3" points="448.6,106.2 415.3,87 415.3,48.6 448.6,67.8 "/>
<polygon class="st4" points="481.9,87 448.6,106.2 448.6,67.8 481.9,48.6 "/>
<polygon class="st3" points="448.6,67.8 415.3,48.6 448.6,29.4 481.9,48.6 "/>
<polygon class="st5" points="448.6,67.8 415.3,48.6 415.3,50.3 448.6,69.5 481.9,50.3 481.9,48.6 "/>
<polygon class="st6" points="491.9,137.8 469.2,124.6 491.9,111.5 514.6,124.6 "/>
<polygon class="st3" points="491.8,92.5 458.5,73.3 458.5,111.7 491.8,130.9 525.1,111.7 525.1,73.3 "/>
<polygon class="st3" points="491.8,130.9 458.5,111.7 458.5,73.3 491.8,92.5 "/>
<polygon class="st4" points="525.1,111.7 491.8,130.9 491.8,92.5 525.1,73.3 "/>
<polygon class="st3" points="491.8,92.5 458.5,73.3 491.8,54.1 525.1,73.3 "/>
<polygon class="st5" points="491.8,92.5 458.5,73.3 458.5,74.9 491.8,94.1 525.1,74.9 525.1,73.3 "/>
<polygon class="st3" points="362.1,69.5 328.8,50.3 328.8,88.7 362.1,107.9 395.4,88.7 395.4,50.3 "/>
<polygon class="st3" points="362.1,107.9 328.8,88.7 328.8,50.3 362.1,69.5 "/>
<polygon class="st4" points="395.4,88.7 362.1,107.9 362.1,69.5 395.4,50.3 "/>
<polygon class="st3" points="362.1,69.5 328.8,50.3 362.1,31.1 395.4,50.3 "/>
<polygon class="st5" points="362.1,69.5 328.8,50.3 328.8,51.9 362.1,71.1 395.4,51.9 395.4,50.3 "/>
<polygon class="st3" points="318.9,95.8 285.6,76.6 285.6,115 318.9,134.2 352.2,115 352.2,76.6 "/>
<polygon class="st3" points="318.9,134.2 285.6,115 285.6,76.6 318.9,95.8 "/>
<polygon class="st4" points="352.2,115 318.9,134.2 318.9,95.8 352.2,76.6 "/>
<polygon class="st3" points="318.9,95.8 285.6,76.6 318.9,57.4 352.2,76.6 "/>
<polygon class="st5" points="318.9,95.8 285.6,76.6 285.6,78.3 318.9,97.5 352.2,78.3 352.2,76.6 "/>
<polygon class="st3" points="404.9,94.9 371.6,75.7 371.6,114.1 404.9,133.3 438.2,114.1 438.2,75.7 "/>
<polygon class="st3" points="404.9,133.3 371.6,114.1 371.6,75.7 404.9,94.9 "/>
<polygon class="st4" points="438.2,114.1 404.9,133.3 404.9,94.9 438.2,75.7 "/>
<polygon class="st3" points="404.9,94.9 371.6,75.7 404.9,56.5 438.2,75.7 "/>
<polygon class="st5" points="404.9,94.9 371.6,75.7 371.6,77.3 404.9,96.6 438.2,77.3 438.2,75.7 "/>
<polygon class="st6" points="360.9,166.5 338.2,153.4 360.9,140.2 383.6,153.4 "/>
<polygon class="st3" points="360.9,121.5 327.6,102.3 327.6,140.7 360.9,159.9 394.1,140.7 394.1,102.3 "/>
<polygon class="st3" points="360.9,159.9 327.6,140.7 327.6,102.3 360.9,121.5 "/>
<polygon class="st4" points="394.1,140.7 360.9,159.9 360.9,121.5 394.1,102.3 "/>
<polygon class="st3" points="360.9,121.5 327.6,102.3 360.9,83.1 394.1,102.3 "/>
<polygon class="st5" points="360.9,121.5 327.6,102.3 327.6,103.9 360.9,123.2 394.1,103.9 394.1,102.3 "/>
<polygon class="st6" points="449.1,164.3 426.4,151.1 449.1,138 471.8,151.1 "/>
<polygon class="st3" points="449,119 415.7,99.8 415.7,138.2 449,157.4 482.3,138.2 482.3,99.8 "/>
<polygon class="st3" points="449,157.4 415.7,138.2 415.7,99.8 449,119 "/>
<polygon class="st4" points="482.3,138.2 449,157.4 449,119 482.3,99.8 "/>
<polygon class="st3" points="449,119 415.7,99.8 449,80.6 482.3,99.8 "/>
<polygon class="st5" points="449,119 415.7,99.8 415.7,101.4 449,120.7 482.3,101.4 482.3,99.8 "/>
<polygon class="st6" points="405.3,190.2 382.6,177.1 405.3,164 428,177.1 "/>
<polygon class="st3" points="405.3,145.2 372,126 372,164.5 405.3,183.7 438.6,164.5 438.6,126 "/>
<polygon class="st3" points="405.3,183.7 372,164.5 372,126 405.3,145.2 "/>
<polygon class="st4" points="438.6,164.5 405.3,183.7 405.3,145.2 438.6,126 "/>
<polygon class="st3" points="405.3,145.2 372,126 405.3,106.8 438.6,126 "/>
<polygon class="st5" points="405.3,145.2 372,126 372,127.7 405.3,146.9 438.6,127.7 438.6,126 "/>
<radialGradient id="SVGID_3_" cx="554.1277" cy="-31468.0605" r="385.435" gradientTransform="matrix(0.4051 -0.2405 7.351667e-03 1.238196e-02 462.5482 639.9912)" gradientUnits="userSpaceOnUse">
	<stop  offset="9.900000e-02" style="stop-color:#FFFFFF"/>
	<stop  offset="0.1831" style="stop-color:#FFFFFF;stop-opacity:0.8325"/>
	<stop  offset="0.3053" style="stop-color:#FFFFFF;stop-opacity:0.6145"/>
	<stop  offset="0.4284" style="stop-color:#FFFFFF;stop-opacity:0.4265"/>
	<stop  offset="0.5497" style="stop-color:#FFFFFF;stop-opacity:0.273"/>
	<stop  offset="0.6687" style="stop-color:#FFFFFF;stop-opacity:0.1536"/>
	<stop  offset="0.7848" style="stop-color:#FFFFFF;stop-opacity:6.850000e-02"/>
	<stop  offset="0.8968" style="stop-color:#FFFFFF;stop-opacity:1.730000e-02"/>
	<stop  offset="1" style="stop-color:#FFFFFF;stop-opacity:0"/>
</radialGradient>
<path class="st7" d="M452.2,112.1c86.2-51.2,157.4-90.6,159-87.9c1.6,2.6-67.1,46.3-153.3,97.5s-157.4,90.6-159,87.9
	C297.4,206.9,366,163.3,452.2,112.1z"/>
<radialGradient id="SVGID_4_" cx="1150.5455" cy="-16912.2949" r="385.975" gradientTransform="matrix(0 -0.4711 1.440000e-02 0 647.8007 750.4159)" gradientUnits="userSpaceOnUse">
	<stop  offset="9.900000e-02" style="stop-color:#FFFFFF"/>
	<stop  offset="0.1831" style="stop-color:#FFFFFF;stop-opacity:0.8325"/>
	<stop  offset="0.3053" style="stop-color:#FFFFFF;stop-opacity:0.6145"/>
	<stop  offset="0.4284" style="stop-color:#FFFFFF;stop-opacity:0.4265"/>
	<stop  offset="0.5497" style="stop-color:#FFFFFF;stop-opacity:0.273"/>
	<stop  offset="0.6687" style="stop-color:#FFFFFF;stop-opacity:0.1536"/>
	<stop  offset="0.7848" style="stop-color:#FFFFFF;stop-opacity:6.850000e-02"/>
	<stop  offset="0.8968" style="stop-color:#FFFFFF;stop-opacity:1.730000e-02"/>
	<stop  offset="1" style="stop-color:#FFFFFF;stop-opacity:0"/>
</radialGradient>
<ellipse class="st8" cx="404.3" cy="208.4" rx="5.6" ry="181.6"/>
<radialGradient id="SVGID_5_" cx="1490.9326" cy="-14088.2881" r="385.494" gradientTransform="matrix(-0.408 -0.2356 -7.200000e-03 1.247077e-02 850.3986 638.0188)" gradientUnits="userSpaceOnUse">
	<stop  offset="9.900000e-02" style="stop-color:#FFFFFF"/>
	<stop  offset="0.1831" style="stop-color:#FFFFFF;stop-opacity:0.8325"/>
	<stop  offset="0.3053" style="stop-color:#FFFFFF;stop-opacity:0.6145"/>
	<stop  offset="0.4284" style="stop-color:#FFFFFF;stop-opacity:0.4265"/>
	<stop  offset="0.5497" style="stop-color:#FFFFFF;stop-opacity:0.273"/>
	<stop  offset="0.6687" style="stop-color:#FFFFFF;stop-opacity:0.1536"/>
	<stop  offset="0.7848" style="stop-color:#FFFFFF;stop-opacity:6.850000e-02"/>
	<stop  offset="0.8968" style="stop-color:#FFFFFF;stop-opacity:1.730000e-02"/>
	<stop  offset="1" style="stop-color:#FFFFFF;stop-opacity:0"/>
</radialGradient>
<path class="st9" d="M186.3,20.3c1.5-2.7,73.2,35.8,160,86s156,92.9,154.5,95.6c-1.5,2.7-73.2-35.8-160-86S184.8,23,186.3,20.3z"/>
</svg>
