<svg id="Layer_1" data-name="Layer 1" xmlns="http://www.w3.org/2000/svg" xmlns:xlink="http://www.w3.org/1999/xlink" viewBox="0 0 1366 768.83332"><defs><style>.cls-1{fill:url(#radial-gradient);}.cls-2{fill:none;}.cls-3{opacity:0.5;fill:url(#linear-gradient);}.cls-3,.cls-6,.cls-7{isolation:isolate;}.cls-4{fill:#a566ff;}.cls-5{fill:#8946f2;}.cls-6{fill:#e5d4ff;opacity:0.75;}.cls-7{fill:#6a36ce;opacity:0.7;}.cls-8{fill:url(#radial-gradient-2);}.cls-9{fill:url(#radial-gradient-3);}.cls-10{fill:url(#radial-gradient-4);}</style><radialGradient id="radial-gradient" cx="376.61869" cy="398.77351" r="286.90881" gradientTransform="matrix(0.866, 0.5, -0.8606, 0.4969, 429.3107, -175.693)" gradientUnits="userSpaceOnUse"><stop offset="0.09901" stop-color="#fff" stop-opacity="0"/><stop offset="0.11558" stop-color="#eadbff" stop-opacity="0.18921"/><stop offset="0.13428" stop-color="#d5b7ff" stop-opacity="0.37393"/><stop offset="0.15297" stop-color="#c49aff" stop-opacity="0.52729"/><stop offset="0.17132" stop-color="#b683ff" stop-opacity="0.64647"/><stop offset="0.18924" stop-color="#ad73ff" stop-opacity="0.73155"/><stop offset="0.20651" stop-color="#a769ff" stop-opacity="0.7827"/><stop offset="0.22244" stop-color="#a566ff" stop-opacity="0.8"/><stop offset="0.23234" stop-color="#9f62f6" stop-opacity="0.77175"/><stop offset="0.30156" stop-color="#7a4bbd" stop-opacity="0.59208"/><stop offset="0.37534" stop-color="#59378a" stop-opacity="0.43292"/><stop offset="0.45267" stop-color="#3e265f" stop-opacity="0.29884"/><stop offset="0.5345" stop-color="#27183c" stop-opacity="0.18976"/><stop offset="0.62246" stop-color="#160d22" stop-opacity="0.10547"/><stop offset="0.71944" stop-color="#09060f" stop-opacity="0.04587"/><stop offset="0.8325" stop-color="#020103" stop-opacity="0.0108"/><stop offset="1" stop-opacity="0"/></radialGradient><linearGradient id="linear-gradient" x1="925.69039" y1="254.13701" x2="377.21702" y2="564.93885" gradientTransform="matrix(1, 0, 0, -1, 0, 768)" gradientUnits="userSpaceOnUse"><stop offset="0" stop-opacity="0"/><stop offset="0.3707" stop-color="#060508" stop-opacity="0.145"/><stop offset="0.8635" stop-color="#171220" stop-opacity="0.5546"/><stop offset="1" stop-color="#1d1729" stop-opacity="0.7"/></linearGradient><radialGradient id="radial-gradient-2" cx="877.15426" cy="19539.87531" r="385.435" gradientTransform="matrix(0.4711, 0, 0, -0.0144, 42.24776, 398.7278)" gradientUnits="userSpaceOnUse"><stop offset="0.099" stop-color="#fff"/><stop offset="0.1831" stop-color="#fff" stop-opacity="0.8325"/><stop offset="0.3053" stop-color="#fff" stop-opacity="0.6145"/><stop offset="0.4284" stop-color="#fff" stop-opacity="0.4265"/><stop offset="0.5497" stop-color="#fff" stop-opacity="0.273"/><stop offset="0.6687" stop-color="#fff" stop-opacity="0.1536"/><stop offset="0.7848" stop-color="#fff" stop-opacity="0.0685"/><stop offset="0.8968" stop-color="#fff" stop-opacity="0.0173"/><stop offset="1" stop-color="#fff" stop-opacity="0"/></radialGradient><radialGradient id="radial-gradient-3" cx="796.89514" cy="-8487.25982" r="385.97498" gradientTransform="matrix(0, -0.4711, -0.0144, 0, 282.04707, 583.81121)" xlink:href="#radial-gradient-2"/><radialGradient id="radial-gradient-4" cx="432.56647" cy="28621.11238" r="385.49395" gradientTransform="matrix(0, -0.4711, 0.0144, 0, -68.61929, 314.86448)" xlink:href="#radial-gradient-2"/></defs><title>cube-center</title><path class="cls-1" d="M660.74785,354.22092c-136.36957,78.73324-358.16286,78.33239-495.38876-.89556-137.2259-79.22742-137.9205-207.27976-1.55093-286.01247C300.17772-11.42036,521.971-11.019,659.19691,68.20845S797.11742,275.4882,660.74785,354.22092Z"/><rect class="cls-2" width="1366" height="768.83332"/><polygon class="cls-3" points="878 566.155 304.234 227.783 416.869 146.214 1026.206 492.307 878 566.155"/><polygon class="cls-4" points="405.354 145.149 372.072 125.933 372.072 164.363 405.354 183.578 438.636 164.363 438.636 125.933 405.354 145.149"/><polygon class="cls-4" points="405.354 183.578 372.072 164.363 372.072 125.933 405.354 145.149 405.354 183.578"/><polygon class="cls-5" points="438.636 164.363 405.354 183.578 405.354 145.149 438.636 125.933 438.636 164.363"/><polygon class="cls-4" points="405.354 145.149 372.072 125.933 405.353 106.718 438.635 125.934 405.354 145.149"/><polygon class="cls-6" points="405.354 145.149 373.516 126.766 372.072 127.6 405.354 146.815 438.635 127.601 437.192 126.767 405.354 145.149"/><polygon class="cls-4" points="448.585 169.815 415.303 150.6 415.303 189.029 448.585 208.244 481.867 189.029 481.867 150.6 448.585 169.815"/><polygon class="cls-4" points="448.585 208.245 415.303 189.029 415.303 150.6 448.585 169.815 448.585 208.245"/><polygon class="cls-5" points="481.867 189.029 448.585 208.245 448.585 169.815 481.867 150.6 481.867 189.029"/><polygon class="cls-4" points="448.585 169.815 415.303 150.6 448.584 131.385 481.866 150.6 448.585 169.815"/><polygon class="cls-6" points="448.585 169.815 416.746 151.433 415.303 152.266 448.585 171.482 481.866 152.267 480.423 151.434 448.585 169.815"/><polygon class="cls-4" points="491.816 194.482 458.534 175.266 458.534 213.696 491.816 232.911 525.098 213.696 525.098 175.266 491.816 194.482"/><polygon class="cls-4" points="491.816 232.911 458.534 213.696 458.534 175.266 491.816 194.482 491.816 232.911"/><polygon class="cls-5" points="525.098 213.696 491.816 232.911 491.816 194.482 525.098 175.266 525.098 213.696"/><polygon class="cls-4" points="491.816 194.482 458.534 175.266 491.815 156.051 525.097 175.267 491.816 194.482"/><polygon class="cls-6" points="491.816 194.482 459.978 176.1 458.534 176.933 491.816 196.148 525.097 176.934 525.098 175.266 491.816 194.482"/><polygon class="cls-4" points="362.123 171.482 328.841 152.267 328.841 190.696 362.123 209.911 395.405 190.696 395.405 152.267 362.123 171.482"/><polygon class="cls-4" points="362.123 209.912 328.841 190.696 328.841 152.267 362.123 171.482 362.123 209.912"/><polygon class="cls-5" points="395.405 190.696 362.123 209.912 362.123 171.482 395.405 152.267 395.405 190.696"/><polygon class="cls-4" points="362.123 171.482 328.841 152.267 362.122 133.052 395.404 152.267 362.123 171.482"/><polygon class="cls-6" points="362.123 171.482 330.284 153.1 328.841 153.934 362.123 173.149 395.404 153.934 393.961 153.101 362.123 171.482"/><polygon class="cls-4" points="405.354 196.149 372.072 176.933 372.072 215.363 405.354 234.578 438.636 215.363 438.636 176.933 405.354 196.149"/><polygon class="cls-4" points="405.354 234.578 372.072 215.363 372.072 176.933 405.354 196.149 405.354 234.578"/><polygon class="cls-5" points="438.636 215.363 405.354 234.578 405.354 196.149 438.636 176.933 438.636 215.363"/><polygon class="cls-4" points="405.354 196.149 372.072 176.933 405.353 157.719 438.635 176.934 405.354 196.149"/><polygon class="cls-6" points="405.354 196.149 373.516 177.767 372.072 178.6 405.354 197.815 438.635 178.601 437.192 177.767 405.354 196.149"/><polygon class="cls-4" points="448.585 220.815 415.303 201.6 415.303 240.029 448.585 259.245 481.867 240.029 481.867 201.6 448.585 220.815"/><polygon class="cls-4" points="448.585 259.245 415.303 240.029 415.303 201.6 448.585 220.815 448.585 259.245"/><polygon class="cls-5" points="481.867 240.029 448.585 259.245 448.585 220.815 481.867 201.6 481.867 240.029"/><polygon class="cls-4" points="448.585 220.815 415.303 201.6 448.584 182.385 481.866 201.601 448.585 220.815"/><polygon class="cls-6" points="448.585 220.815 416.746 202.433 415.303 203.267 448.585 222.482 481.866 203.267 481.867 201.6 448.585 220.815"/><polygon class="cls-4" points="318.892 197.816 285.61 178.6 285.61 217.03 318.892 236.245 352.174 217.03 352.174 178.6 318.892 197.816"/><polygon class="cls-4" points="318.892 236.245 285.61 217.03 285.61 178.601 318.892 197.816 318.892 236.245"/><polygon class="cls-5" points="352.174 217.03 318.892 236.245 318.892 197.816 352.174 178.601 352.174 217.03"/><polygon class="cls-4" points="318.892 197.816 285.61 178.601 318.891 159.386 352.173 178.601 318.892 197.816"/><polygon class="cls-6" points="318.892 197.816 285.61 178.6 285.61 180.267 318.892 199.483 352.173 180.268 350.729 179.434 318.892 197.816"/><polygon class="cls-4" points="362.123 222.482 328.841 203.267 328.841 241.696 362.123 260.912 395.405 241.696 395.405 203.267 362.123 222.482"/><polygon class="cls-4" points="362.123 260.912 328.841 241.697 328.841 203.267 362.123 222.482 362.123 260.912"/><polygon class="cls-5" points="395.405 241.697 362.123 260.912 362.123 222.482 395.405 203.267 395.405 241.697"/><polygon class="cls-4" points="362.123 222.482 328.841 203.267 362.122 184.052 395.404 203.268 362.123 222.482"/><polygon class="cls-6" points="362.123 222.482 328.841 203.267 328.841 204.934 362.123 224.149 395.404 204.934 393.961 204.101 362.123 222.482"/><polygon class="cls-4" points="405.354 247.149 372.072 227.933 372.072 266.363 405.354 285.578 438.636 266.363 438.636 227.933 405.354 247.149"/><polygon class="cls-4" points="405.354 285.578 372.072 266.363 372.072 227.934 405.354 247.149 405.354 285.578"/><polygon class="cls-5" points="438.636 266.363 405.354 285.578 405.354 247.149 438.636 227.934 438.636 266.363"/><polygon class="cls-4" points="405.354 247.149 372.072 227.934 405.353 208.719 438.635 227.934 405.354 247.149"/><polygon class="cls-6" points="405.354 247.149 372.072 227.933 372.072 229.6 405.354 248.816 438.635 229.601 438.636 227.933 405.354 247.149"/><polygon class="cls-4" points="405.354 94.149 372.072 74.933 372.072 113.363 405.354 132.578 438.636 113.363 438.636 74.933 405.354 94.149"/><polygon class="cls-4" points="405.354 132.578 372.072 113.363 372.072 74.933 405.354 94.149 405.354 132.578"/><polygon class="cls-5" points="438.636 113.363 405.354 132.578 405.354 94.149 438.636 74.933 438.636 113.363"/><polygon class="cls-4" points="405.354 94.149 372.072 74.933 405.353 55.719 438.635 74.934 405.354 94.149"/><polygon class="cls-6" points="405.354 94.149 373.516 75.767 372.072 76.6 405.354 95.816 438.635 76.601 437.192 75.767 405.354 94.149"/><polygon class="cls-7" points="405.354 240.89 382.65 227.782 405.353 214.675 428.057 227.783 405.354 240.89"/><polygon class="cls-7" points="362.123 216.224 339.42 203.116 362.123 190.008 384.826 203.116 362.123 216.224"/><polygon class="cls-7" points="448.585 214.557 425.881 201.449 448.584 188.341 471.288 201.449 448.585 214.557"/><polygon class="cls-7" points="491.899 188.525 469.195 175.417 491.898 162.31 514.602 175.417 491.899 188.525"/><polygon class="cls-7" points="318.892 191.557 296.188 178.449 318.891 165.342 341.595 178.45 318.892 191.557"/><polygon class="cls-4" points="448.585 118.815 415.303 99.6 415.303 138.029 448.585 157.245 481.867 138.029 481.867 99.6 448.585 118.815"/><polygon class="cls-4" points="448.585 157.245 415.303 138.03 415.303 99.6 448.585 118.815 448.585 157.245"/><polygon class="cls-5" points="481.867 138.03 448.585 157.245 448.585 118.815 481.867 99.6 481.867 138.03"/><polygon class="cls-4" points="448.585 118.815 415.303 99.6 448.584 80.385 481.866 99.6 448.585 118.815"/><polygon class="cls-6" points="448.585 118.815 416.746 100.433 415.303 101.267 448.585 120.482 481.866 101.267 480.423 100.434 448.585 118.815"/><polygon class="cls-4" points="491.816 143.482 458.534 124.267 458.534 162.696 491.816 181.911 525.098 162.696 525.098 124.267 491.816 143.482"/><polygon class="cls-4" points="491.816 181.911 458.534 162.696 458.534 124.267 491.816 143.482 491.816 181.911"/><polygon class="cls-5" points="525.098 162.696 491.816 181.911 491.816 143.482 525.098 124.267 525.098 162.696"/><polygon class="cls-4" points="491.816 143.482 458.534 124.267 491.815 105.052 525.097 124.267 491.816 143.482"/><polygon class="cls-6" points="491.816 143.482 459.978 125.1 458.534 125.933 491.816 145.149 525.097 125.934 525.098 124.267 491.816 143.482"/><polygon class="cls-4" points="362.123 120.483 328.841 101.267 328.841 139.697 362.123 158.912 395.405 139.697 395.405 101.267 362.123 120.483"/><polygon class="cls-4" points="362.123 158.912 328.841 139.697 328.841 101.267 362.123 120.482 362.123 158.912"/><polygon class="cls-5" points="395.405 139.697 362.123 158.912 362.123 120.482 395.405 101.267 395.405 139.697"/><polygon class="cls-4" points="362.123 120.482 328.841 101.267 362.122 82.052 395.404 101.268 362.123 120.482"/><polygon class="cls-6" points="362.123 120.483 330.284 102.1 328.841 102.934 362.123 122.149 395.404 102.934 393.961 102.101 362.123 120.483"/><polygon class="cls-4" points="405.354 145.149 372.072 125.934 372.072 164.363 405.354 183.578 438.636 164.363 438.636 125.934 405.354 145.149"/><polygon class="cls-4" points="405.354 183.578 372.072 164.363 372.072 125.934 405.354 145.149 405.354 183.578"/><polygon class="cls-5" points="438.636 164.363 405.354 183.578 405.354 145.149 438.636 125.934 438.636 164.363"/><polygon class="cls-4" points="405.354 145.149 372.072 125.934 405.353 106.719 438.635 125.934 405.354 145.149"/><polygon class="cls-6" points="405.354 145.149 373.516 126.767 372.072 127.6 405.354 146.816 438.635 127.601 437.192 126.767 405.354 145.149"/><polygon class="cls-4" points="448.585 169.816 415.303 150.6 415.303 189.03 448.585 208.245 481.867 189.03 481.867 150.6 448.585 169.816"/><polygon class="cls-4" points="448.585 208.245 415.303 189.03 415.303 150.6 448.585 169.815 448.585 208.245"/><polygon class="cls-5" points="481.867 189.03 448.585 208.245 448.585 169.815 481.867 150.6 481.867 189.03"/><polygon class="cls-4" points="448.585 169.815 415.303 150.6 448.584 131.385 481.866 150.601 448.585 169.815"/><polygon class="cls-6" points="448.585 169.816 416.746 151.433 415.303 152.267 448.585 171.482 481.866 152.267 481.867 150.6 448.585 169.816"/><polygon class="cls-4" points="318.892 146.816 285.61 127.601 285.61 166.03 318.892 185.245 352.174 166.03 352.174 127.601 318.892 146.816"/><polygon class="cls-4" points="318.892 185.245 285.61 166.03 285.61 127.601 318.892 146.816 318.892 185.245"/><polygon class="cls-5" points="352.174 166.03 318.892 185.245 318.892 146.816 352.174 127.601 352.174 166.03"/><polygon class="cls-4" points="318.892 146.816 285.61 127.601 318.891 108.386 352.173 127.601 318.892 146.816"/><polygon class="cls-6" points="318.892 146.816 287.053 128.434 285.61 129.267 318.892 148.483 352.173 129.268 350.729 128.435 318.892 146.816"/><polygon class="cls-4" points="362.123 171.483 328.841 152.267 328.841 190.697 362.123 209.912 395.405 190.697 395.405 152.267 362.123 171.483"/><polygon class="cls-4" points="362.123 209.912 328.841 190.697 328.841 152.267 362.123 171.482 362.123 209.912"/><polygon class="cls-5" points="395.405 190.697 362.123 209.912 362.123 171.482 395.405 152.267 395.405 190.697"/><polygon class="cls-4" points="362.123 171.482 328.841 152.267 362.122 133.052 395.404 152.268 362.123 171.482"/><polygon class="cls-6" points="362.123 171.483 328.841 152.267 328.841 153.934 362.123 173.149 395.404 153.935 393.961 153.101 362.123 171.483"/><polygon class="cls-4" points="405.354 196.149 372.072 176.934 372.072 215.363 405.354 234.578 438.636 215.363 438.636 176.934 405.354 196.149"/><polygon class="cls-4" points="405.354 234.578 372.072 215.363 372.072 176.934 405.354 196.149 405.354 234.578"/><polygon class="cls-5" points="438.636 215.363 405.354 234.578 405.354 196.149 438.636 176.934 438.636 215.363"/><polygon class="cls-4" points="405.354 196.149 372.072 176.934 405.353 157.719 438.635 176.934 405.354 196.149"/><polygon class="cls-6" points="405.354 196.149 372.072 176.933 372.072 178.6 405.354 197.816 438.635 178.601 438.636 176.934 405.354 196.149"/><polygon class="cls-7" points="318.892 140.783 296.188 127.675 318.891 114.567 341.595 127.675 318.892 140.783"/><polygon class="cls-4" points="405.354 43.149 372.072 23.933 372.072 62.363 405.354 81.578 438.636 62.363 438.636 23.933 405.354 43.149"/><polygon class="cls-4" points="405.354 81.578 372.072 62.363 372.072 23.934 405.354 43.149 405.354 81.578"/><polygon class="cls-5" points="438.636 62.363 405.354 81.578 405.354 43.149 438.636 23.934 438.636 62.363"/><polygon class="cls-4" points="405.354 43.149 372.072 23.934 405.353 4.719 438.635 23.934 405.354 43.149"/><polygon class="cls-6" points="405.354 43.149 372.072 23.933 372.072 25.6 405.354 44.816 438.635 25.601 438.636 23.933 405.354 43.149"/><polygon class="cls-4" points="448.585 67.816 415.303 48.6 415.303 87.03 448.585 106.245 481.867 87.03 481.867 48.6 448.585 67.816"/><polygon class="cls-4" points="448.585 106.245 415.303 87.03 415.303 48.6 448.585 67.816 448.585 106.245"/><polygon class="cls-5" points="481.867 87.03 448.585 106.245 448.585 67.816 481.867 48.6 481.867 87.03"/><polygon class="cls-4" points="448.585 67.816 415.303 48.6 448.584 29.385 481.866 48.601 448.585 67.816"/><polygon class="cls-6" points="448.585 67.816 415.303 48.6 415.303 50.267 448.585 69.482 481.866 50.267 481.867 48.6 448.585 67.816"/><polygon class="cls-7" points="491.899 137.751 469.195 124.643 491.898 111.535 514.602 124.643 491.899 137.751"/><polygon class="cls-4" points="491.816 92.482 458.534 73.266 458.534 111.696 491.816 130.911 525.098 111.696 525.098 73.266 491.816 92.482"/><polygon class="cls-4" points="491.816 130.912 458.534 111.696 458.534 73.267 491.816 92.482 491.816 130.912"/><polygon class="cls-5" points="525.098 111.696 491.816 130.912 491.816 92.482 525.098 73.267 525.098 111.696"/><polygon class="cls-4" points="491.816 92.482 458.534 73.267 491.815 54.052 525.097 73.267 491.816 92.482"/><polygon class="cls-6" points="491.816 92.482 458.534 73.266 458.534 74.933 491.816 94.149 525.097 74.934 525.098 73.266 491.816 92.482"/><polygon class="cls-4" points="362.123 69.483 328.841 50.267 328.841 88.697 362.123 107.912 395.405 88.697 395.405 50.267 362.123 69.483"/><polygon class="cls-4" points="362.123 107.912 328.841 88.697 328.841 50.267 362.123 69.483 362.123 107.912"/><polygon class="cls-5" points="395.405 88.697 362.123 107.912 362.123 69.483 395.405 50.267 395.405 88.697"/><polygon class="cls-4" points="362.123 69.483 328.841 50.267 362.122 31.053 395.404 50.268 362.123 69.483"/><polygon class="cls-6" points="362.123 69.483 328.841 50.267 328.841 51.934 362.123 71.149 395.404 51.934 395.405 50.267 362.123 69.483"/><polygon class="cls-4" points="318.892 95.816 285.61 76.601 285.61 115.03 318.892 134.245 352.174 115.03 352.174 76.601 318.892 95.816"/><polygon class="cls-4" points="318.892 134.246 285.61 115.03 285.61 76.601 318.892 95.816 318.892 134.246"/><polygon class="cls-5" points="352.174 115.03 318.892 134.246 318.892 95.816 352.174 76.601 352.174 115.03"/><polygon class="cls-4" points="318.892 95.816 285.61 76.601 318.891 57.386 352.173 76.601 318.892 95.816"/><polygon class="cls-6" points="318.892 95.816 285.61 76.601 285.61 78.268 318.892 97.483 352.173 78.268 352.174 76.601 318.892 95.816"/><polygon class="cls-4" points="404.919 94.884 371.637 75.669 371.637 114.098 404.919 133.313 438.201 114.098 438.201 75.669 404.919 94.884"/><polygon class="cls-4" points="404.919 133.314 371.637 114.098 371.637 75.669 404.919 94.884 404.919 133.314"/><polygon class="cls-5" points="438.201 114.098 404.919 133.314 404.919 94.884 438.201 75.669 438.201 114.098"/><polygon class="cls-4" points="404.919 94.884 371.637 75.669 404.918 56.454 438.2 75.669 404.919 94.884"/><polygon class="cls-6" points="404.919 94.884 371.637 75.669 371.637 77.335 404.919 96.551 438.2 77.336 438.201 75.669 404.919 94.884"/><polygon class="cls-7" points="360.86 166.461 338.156 153.353 360.859 140.245 383.563 153.353 360.86 166.461"/><polygon class="cls-4" points="360.86 121.494 327.578 102.278 327.578 140.708 360.86 159.923 394.142 140.708 394.142 102.278 360.86 121.494"/><polygon class="cls-4" points="360.86 159.923 327.578 140.708 327.578 102.278 360.86 121.494 360.86 159.923"/><polygon class="cls-5" points="394.142 140.708 360.86 159.923 360.86 121.494 394.142 102.278 394.142 140.708"/><polygon class="cls-4" points="360.86 121.494 327.578 102.278 360.859 83.064 394.141 102.279 360.86 121.494"/><polygon class="cls-6" points="360.86 121.494 327.578 102.278 327.578 103.945 360.86 123.161 394.141 103.946 394.142 102.278 360.86 121.494"/><polygon class="cls-7" points="449.103 164.257 426.399 151.149 449.102 138.041 471.806 151.149 449.103 164.257"/><polygon class="cls-4" points="449.02 118.988 415.738 99.773 415.738 138.202 449.02 157.417 482.302 138.202 482.302 99.773 449.02 118.988"/><polygon class="cls-4" points="449.02 157.418 415.738 138.202 415.738 99.773 449.02 118.988 449.02 157.418"/><polygon class="cls-5" points="482.302 138.202 449.02 157.418 449.02 118.988 482.302 99.773 482.302 138.202"/><polygon class="cls-4" points="449.02 118.988 415.738 99.773 449.019 80.558 482.301 99.773 449.02 118.988"/><polygon class="cls-6" points="449.02 118.988 415.738 99.772 415.738 101.439 449.02 120.655 482.301 101.44 482.302 99.773 449.02 118.988"/><polygon class="cls-7" points="405.312 190.206 382.609 177.098 405.312 163.99 428.015 177.098 405.312 190.206"/><polygon class="cls-4" points="405.313 145.239 372.031 126.023 372.031 164.453 405.313 183.668 438.594 164.453 438.594 126.023 405.313 145.239"/><polygon class="cls-4" points="405.313 183.668 372.031 164.453 372.031 126.023 405.313 145.239 405.313 183.668"/><polygon class="cls-5" points="438.594 164.453 405.313 183.668 405.313 145.239 438.594 126.023 438.594 164.453"/><polygon class="cls-4" points="405.313 145.239 372.031 126.023 405.312 106.809 438.594 126.024 405.313 145.239"/><polygon class="cls-6" points="405.313 145.239 372.031 126.023 372.031 127.69 405.313 146.906 438.594 127.691 438.594 126.023 405.313 145.239"/><ellipse class="cls-8" cx="455.07579" cy="116.86002" rx="181.5716" ry="5.5661" transform="translate(4.11418 248.70789) rotate(-30.6993)"/><ellipse class="cls-9" cx="404.26361" cy="208.39391" rx="5.56601" ry="181.5717"/><ellipse class="cls-10" cx="343.58878" cy="111.08241" rx="5.5661" ry="181.5719" transform="translate(75.5942 353.09782) rotate(-60)"/></svg>