<svg id="Layer_1" data-name="Layer 1" xmlns="http://www.w3.org/2000/svg" xmlns:xlink="http://www.w3.org/1999/xlink" viewBox="0 0 167.52 237.74"><defs><style>.cls-1{fill:#5351af;}.cls-2{fill:url(#linear-gradient);}.cls-3{fill:#0f054c;opacity:0.3;}.cls-3,.cls-4,.cls-8,.cls-9{isolation:isolate;}.cls-4,.cls-8{opacity:0.4;}.cls-4{fill:url(#radial-gradient);}.cls-5{fill:url(#linear-gradient-2);}.cls-6{fill:#fff;}.cls-7{fill:url(#linear-gradient-3);}.cls-8{fill:#42e8e0;}.cls-9{opacity:0.5;fill:url(#linear-gradient-4);}</style><linearGradient id="linear-gradient" x1="128.64" y1="666.65" x2="214.13" y2="666.65" gradientTransform="translate(-0.45 -452.49)" gradientUnits="userSpaceOnUse"><stop offset="0" stop-color="#bcbeff"/><stop offset="0.15" stop-color="#a3a7f5"/><stop offset="0.39" stop-color="#8289e8"/><stop offset="0.61" stop-color="#6a73df"/><stop offset="0.82" stop-color="#5c66d9"/><stop offset="1" stop-color="#5761d7"/></linearGradient><radialGradient id="radial-gradient" cx="211.97" cy="679.7" r="49.68" gradientTransform="translate(-0.45 -452.49)" gradientUnits="userSpaceOnUse"><stop offset="0" stop-color="#42e8e0"/><stop offset="0.03" stop-color="#3fdcd8"/><stop offset="0.24" stop-color="#319cae"/><stop offset="0.43" stop-color="#25668b"/><stop offset="0.61" stop-color="#1b3c70"/><stop offset="0.77" stop-color="#151e5c"/><stop offset="0.9" stop-color="#100c50"/><stop offset="1" stop-color="#0f054c"/></radialGradient><linearGradient id="linear-gradient-2" x1="128.64" y1="653.68" x2="214.13" y2="653.68" gradientTransform="translate(-0.45 -452.49)" gradientUnits="userSpaceOnUse"><stop offset="0" stop-color="#c0bff6"/><stop offset="0.29" stop-color="#c5c4f7"/><stop offset="0.64" stop-color="#d3d2f9"/><stop offset="1" stop-color="#e9e9fd"/></linearGradient><linearGradient id="linear-gradient-3" x1="131.75" y1="652.47" x2="211.32" y2="652.47" xlink:href="#linear-gradient-2"/><linearGradient id="linear-gradient-4" x1="171.53" y1="452.49" x2="171.53" y2="666.19" gradientTransform="translate(-0.45 -452.49)" gradientUnits="userSpaceOnUse"><stop offset="0" stop-opacity="0"/><stop offset="0.15" stop-color="#010303" stop-opacity="0.01"/><stop offset="0.29" stop-color="#040e0e" stop-opacity="0.06"/><stop offset="0.41" stop-color="#09201f" stop-opacity="0.14"/><stop offset="0.54" stop-color="#103a38" stop-opacity="0.25"/><stop offset="0.66" stop-color="#1a5a57" stop-opacity="0.39"/><stop offset="0.77" stop-color="#25827e" stop-opacity="0.56"/><stop offset="0.89" stop-color="#32b1ab" stop-opacity="0.76"/><stop offset="1" stop-color="#42e7df" stop-opacity="0.99"/><stop offset="1" stop-color="#42e8e0"/></linearGradient></defs><title>node-ray</title><path class="cls-1" d="M153.86,204.14c9.43-5.44,24.72-5.44,34.15,0a18.48,18.48,0,0,1,3.84,2.89c5.34-5.33,4.06-12.27-3.84-16.83-9.43-5.44-24.72-5.44-34.15,0-7.9,4.56-9.18,11.5-3.84,16.83A18.48,18.48,0,0,1,153.86,204.14Z" transform="translate(-87.32)"/><path class="cls-2" d="M207.34,200.13a33.57,33.57,0,0,0-6.18-4.51,51.09,51.09,0,0,0-12.63-5c8.79,5.58,8.53,14.21-.81,19.6-9.61,5.55-25.19,5.55-34.8,0-9-5.2-9.57-13.44-1.68-19a49.55,49.55,0,0,0-10.54,4.46,33.56,33.56,0,0,0-6.19,4.51h-6.33v12.94h0c0,6.32,4.17,12.63,12.52,17.45,16.69,9.64,43.76,9.64,60.45,0,8.35-4.82,12.52-11.13,12.52-17.45V200.13Z" transform="translate(-87.32)"/><path class="cls-3" d="M201.16,195.61a51.08,51.08,0,0,0-12.63-5c8.79,5.58,8.53,14.21-.81,19.6a35.26,35.26,0,0,1-16.79,4.15v23.41c10.94,0,21.88-2.41,30.22-7.23s12.52-11.13,12.52-17.45V200.13h-6.33A33.57,33.57,0,0,0,201.16,195.61Z" transform="translate(-87.32)"/><path class="cls-4" d="M201.16,195.61a51.08,51.08,0,0,0-12.63-5c8.79,5.58,8.53,14.21-.81,19.6a35.26,35.26,0,0,1-16.79,4.15v23.41c10.94,0,21.88-2.41,30.22-7.23s12.52-11.13,12.52-17.45V200.13h-6.33A33.57,33.57,0,0,0,201.16,195.61Z" transform="translate(-87.32)"/><path class="cls-5" d="M201.16,183.74c-16.69-9.64-43.76-9.64-60.45,0s-16.69,25.26,0,34.9,43.76,9.64,60.45,0S217.85,193.38,201.16,183.74ZM188,211.24c-9.61,5.55-25.19,5.55-34.8,0s-9.61-14.54,0-20.09,25.19-5.55,34.8,0,9.61,14.54,0,20.09Z" transform="translate(-87.32)"/><path class="cls-6" d="M201.16,217.31c-16.69,9.64-43.75,9.64-60.45,0-8.05-4.65-12.22-10.69-12.5-16.78-.3,6.54,3.86,13.13,12.5,18.12,16.69,9.64,43.76,9.64,60.45,0,8.64-5,12.81-11.58,12.5-18.12C213.38,206.62,209.21,212.66,201.16,217.31Z" transform="translate(-87.32)"/><path class="cls-6" d="M188,189.81c-9.61-5.55-25.19-5.55-34.8,0-5.1,2.94-7.49,6.86-7.18,10.71.28-3.41,2.67-6.77,7.18-9.38,9.61-5.55,25.19-5.55,34.8,0,4.51,2.6,6.9,6,7.18,9.38C195.52,196.67,193.13,192.76,188,189.81Z" transform="translate(-87.32)"/><path class="cls-7" d="M199.22,183.73c-15.54-9-40.73-9-56.27,0s-15.54,23.52,0,32.49,40.73,9,56.27,0S214.76,192.7,199.22,183.73Zm-11.33,25.95c-9.28,5.36-24.33,5.36-33.61,0s-9.28-14,0-19.4,24.33-5.36,33.61,0S197.17,204.32,187.89,209.68Z" transform="translate(-87.32)"/><path class="cls-8" d="M187.89,209.68c-9.28,5.36-24.33,5.36-33.61,0s-9.28-14,0-19.4,24.33-5.36,33.61,0S197.17,204.32,187.89,209.68Z" transform="translate(-87.32)"/><path class="cls-9" d="M194.83,198.82h0L254.85,0H87.32l60,199h0c0,3.77,2.27,7.55,7,10.42,9.28,5.7,24.33,5.7,33.61,0C192.65,206.5,195,202.65,194.83,198.82Z" transform="translate(-87.32)"/></svg>