<svg id="Layer_1" data-name="Layer 1" xmlns="http://www.w3.org/2000/svg" xmlns:xlink="http://www.w3.org/1999/xlink" viewBox="0 0 370.97593 13.93308"><defs><style>.cls-1{fill:url(#radial-gradient);}.cls-2{fill:url(#radial-gradient-2);}.cls-3{fill:url(#radial-gradient-3);}.cls-4{fill:url(#radial-gradient-4);}.cls-5{fill:url(#radial-gradient-5);}.cls-6{fill:url(#radial-gradient-6);}.cls-7{fill:url(#radial-gradient-7);}.cls-8{fill:url(#radial-gradient-8);}.cls-9{fill:url(#radial-gradient-9);}.cls-10{fill:url(#radial-gradient-10);}.cls-11{fill:url(#radial-gradient-11);}.cls-12{fill:url(#radial-gradient-12);}.cls-13{fill:url(#radial-gradient-13);}.cls-14{fill:url(#radial-gradient-14);}.cls-15{fill:url(#radial-gradient-15);}.cls-16{fill:url(#radial-gradient-16);}.cls-17{fill:url(#radial-gradient-17);}.cls-18{fill:url(#radial-gradient-18);}.cls-19{fill:url(#radial-gradient-19);}.cls-20{fill:url(#radial-gradient-20);}.cls-21{fill:url(#radial-gradient-21);}.cls-22{fill:url(#radial-gradient-22);}.cls-23{fill:url(#radial-gradient-23);}.cls-24{fill:url(#radial-gradient-24);}.cls-25{fill:url(#radial-gradient-25);}.cls-26{fill:url(#radial-gradient-26);}.cls-27{fill:url(#radial-gradient-27);}.cls-28{fill:url(#radial-gradient-28);}.cls-29{fill:url(#radial-gradient-29);}.cls-30{fill:url(#radial-gradient-30);}</style><radialGradient id="radial-gradient" cx="87.68164" cy="70.40255" r="9.52875" gradientTransform="matrix(1.2209, 0.0022, 0.0038, 0.7049, -93.33885, -42.15467)" gradientUnits="userSpaceOnUse"><stop offset="0.033" stop-color="#fff" stop-opacity="0"/><stop offset="0.04224" stop-color="#d4ffff" stop-opacity="0.16751"/><stop offset="0.05567" stop-color="#9dffff" stop-opacity="0.38546"/><stop offset="0.0692" stop-color="#6dffff" stop-opacity="0.57345"/><stop offset="0.08253" stop-color="#46ffff" stop-opacity="0.72705"/><stop offset="0.09561" stop-color="#27ffff" stop-opacity="0.84638"/><stop offset="0.10837" stop-color="#1ff" stop-opacity="0.93154"/><stop offset="0.12067" stop-color="#04ffff" stop-opacity="0.98271"/><stop offset="0.13201" stop-color="aqua"/><stop offset="0.13842" stop-color="#09ffff" stop-opacity="0.96381"/><stop offset="0.17339" stop-color="#37ffff" stop-opacity="0.78417"/><stop offset="0.21281" stop-color="#62ffff" stop-opacity="0.61488"/><stop offset="0.25518" stop-color="#87fefe" stop-opacity="0.46688"/><stop offset="0.30129" stop-color="#a8fefe" stop-opacity="0.33967"/><stop offset="0.35225" stop-color="#c3fefe" stop-opacity="0.23299"/><stop offset="0.40977" stop-color="#d9fefe" stop-opacity="0.14667"/><stop offset="0.47697" stop-color="#eafefe" stop-opacity="0.08036"/><stop offset="0.56002" stop-color="#f5fefe" stop-opacity="0.03399"/><stop offset="0.67655" stop-color="#fcfefe" stop-opacity="0.00735"/><stop offset="1" stop-color="#fefefe" stop-opacity="0"/></radialGradient><radialGradient id="radial-gradient-2" cx="97.52409" cy="70.40299" r="9.52875" xlink:href="#radial-gradient"/><radialGradient id="radial-gradient-3" cx="107.36617" cy="70.40282" r="9.52875" xlink:href="#radial-gradient"/><radialGradient id="radial-gradient-4" cx="117.20826" cy="70.40326" r="9.52875" xlink:href="#radial-gradient"/><radialGradient id="radial-gradient-5" cx="127.05056" cy="70.40308" r="9.52866" xlink:href="#radial-gradient"/><radialGradient id="radial-gradient-6" cx="136.8928" cy="70.40291" r="9.52875" xlink:href="#radial-gradient"/><radialGradient id="radial-gradient-7" cx="146.73489" cy="70.40335" r="9.52875" xlink:href="#radial-gradient"/><radialGradient id="radial-gradient-8" cx="156.57697" cy="70.40317" r="9.52875" xlink:href="#radial-gradient"/><radialGradient id="radial-gradient-9" cx="166.41924" cy="70.40362" r="9.52866" xlink:href="#radial-gradient"/><radialGradient id="radial-gradient-10" cx="176.26151" cy="70.40344" r="9.52875" xlink:href="#radial-gradient"/><radialGradient id="radial-gradient-11" cx="186.1036" cy="70.40389" r="9.52875" xlink:href="#radial-gradient"/><radialGradient id="radial-gradient-12" cx="195.94569" cy="70.40371" r="9.52875" xlink:href="#radial-gradient"/><radialGradient id="radial-gradient-13" cx="205.78798" cy="70.40353" r="9.52866" xlink:href="#radial-gradient"/><radialGradient id="radial-gradient-14" cx="215.63022" cy="70.40397" r="9.52875" xlink:href="#radial-gradient"/><radialGradient id="radial-gradient-15" cx="225.47231" cy="70.4038" r="9.52875" xlink:href="#radial-gradient"/><radialGradient id="radial-gradient-16" cx="235.3144" cy="70.40424" r="9.52875" xlink:href="#radial-gradient"/><radialGradient id="radial-gradient-17" cx="245.15667" cy="70.40406" r="9.52866" xlink:href="#radial-gradient"/><radialGradient id="radial-gradient-18" cx="254.99894" cy="70.40451" r="9.52875" xlink:href="#radial-gradient"/><radialGradient id="radial-gradient-19" cx="264.84102" cy="70.40433" r="9.52875" xlink:href="#radial-gradient"/><radialGradient id="radial-gradient-20" cx="274.68311" cy="70.40478" r="9.52875" xlink:href="#radial-gradient"/><radialGradient id="radial-gradient-21" cx="284.52541" cy="70.4046" r="9.52866" xlink:href="#radial-gradient"/><radialGradient id="radial-gradient-22" cx="294.36765" cy="70.40442" r="9.52875" xlink:href="#radial-gradient"/><radialGradient id="radial-gradient-23" cx="304.20974" cy="70.40487" r="9.52875" xlink:href="#radial-gradient"/><radialGradient id="radial-gradient-24" cx="314.05182" cy="70.40469" r="9.52875" xlink:href="#radial-gradient"/><radialGradient id="radial-gradient-25" cx="323.26809" cy="70.22198" r="9.52875" xlink:href="#radial-gradient"/><radialGradient id="radial-gradient-26" cx="333.11018" cy="70.22242" r="9.52875" xlink:href="#radial-gradient"/><radialGradient id="radial-gradient-27" cx="342.95248" cy="70.22225" r="9.52866" xlink:href="#radial-gradient"/><radialGradient id="radial-gradient-28" cx="352.79471" cy="70.22207" r="9.52875" xlink:href="#radial-gradient"/><radialGradient id="radial-gradient-29" cx="362.6368" cy="70.22251" r="9.52875" xlink:href="#radial-gradient"/><radialGradient id="radial-gradient-30" cx="372.47889" cy="70.22234" r="9.52875" xlink:href="#radial-gradient"/></defs><title>connector</title><path class="cls-1" d="M25.613,7.68629c.02021,3.70929-5.17183,6.7073-11.59708,6.69544C7.59063,14.37031,2.36567,11.3534,2.34543,7.64411,2.32566,3.93438,7.5177.93681,13.94295.94823,20.3682.9601,25.59322,3.97656,25.613,7.68629Z" transform="translate(-2.34537 -0.9482)"/><path class="cls-2" d="M37.6296,7.70782c.01977,3.70973-5.17227,6.7073-11.59752,6.69588-6.42525-.01186-11.6498-3.02832-11.67-6.73806C14.3419,3.95635,19.53434.95834,25.95915.9702,32.3844.98162,37.60939,3.99809,37.6296,7.70782Z" transform="translate(-2.34537 -0.9482)"/><path class="cls-3" d="M49.64581,7.72934c.02021,3.70973-5.17227,6.70774-11.59749,6.69588-6.42484-.01142-11.64984-3.02832-11.67-6.73762C26.35807,3.97788,31.55058.98031,37.9758.99173,44.40061,1.00359,49.6256,4.02005,49.64581,7.72934Z" transform="translate(-2.34537 -0.9482)"/><path class="cls-4" d="M61.662,7.75131c.02021,3.70973-5.17227,6.7073-11.59708,6.69588-6.42525-.01186-11.65024-3.02832-11.67045-6.73806-.02021-3.70929,5.17227-6.7073,11.59752-6.69544C56.41725,1.02512,61.64181,4.04158,61.662,7.75131Z" transform="translate(-2.34537 -0.9482)"/><path class="cls-5" d="M73.67826,7.77284c.02018,3.70973-5.17187,6.7073-11.59712,6.69588s-11.65024-3.02832-11.67-6.73762c-.02024-3.70973,5.1718-6.7073,11.597-6.69588S73.65845,4.06355,73.67826,7.77284Z" transform="translate(-2.34537 -0.9482)"/><path class="cls-6" d="M85.69487,7.7948c.01977,3.70929-5.17227,6.7073-11.59752,6.69544-6.42525-.01142-11.6498-3.02789-11.67-6.73762s5.17227-6.7073,11.59708-6.69588C80.44967,1.06861,85.67466,4.08507,85.69487,7.7948Z" transform="translate(-2.34537 -0.9482)"/><path class="cls-7" d="M97.71107,7.81633c.02021,3.70973-5.17224,6.7073-11.59752,6.69588-6.42481-.01186-11.6498-3.02832-11.67-6.73806-.02021-3.70929,5.17227-6.7073,11.59756-6.69544C92.46587,1.09014,97.69086,4.107,97.71107,7.81633Z" transform="translate(-2.34537 -0.9482)"/><path class="cls-8" d="M109.72728,7.8383c.02024,3.70929-5.17227,6.7073-11.59708,6.69544C91.70495,14.52232,86.48,11.50585,86.45975,7.79612S91.632,1.08882,98.05727,1.10024C104.48252,1.11211,109.70707,4.12857,109.72728,7.8383Z" transform="translate(-2.34537 -0.9482)"/><path class="cls-9" d="M121.74348,7.85983c.02021,3.70973-5.17183,6.7073-11.59708,6.69588-6.42525-.01186-11.65021-3.02832-11.67-6.73806-.02021-3.70929,5.17183-6.7073,11.59708-6.69544C116.49872,1.13363,121.72375,4.1501,121.74348,7.85983Z" transform="translate(-2.34537 -0.9482)"/><path class="cls-10" d="M133.76013,7.88179c.01977,3.70929-5.17227,6.7073-11.59752,6.69544-6.42525-.01142-11.6498-3.02832-11.67-6.73762-.02017-3.70973,5.17227-6.7073,11.59708-6.69588C128.51493,1.1556,133.73992,4.17206,133.76013,7.88179Z" transform="translate(-2.34537 -0.9482)"/><path class="cls-11" d="M145.77633,7.90332c.02021,3.70973-5.17227,6.7073-11.59749,6.69588-6.42485-.01186-11.64984-3.02832-11.67-6.73806-.02021-3.70929,5.17231-6.7073,11.59752-6.69544C140.53113,1.17713,145.75612,4.19359,145.77633,7.90332Z" transform="translate(-2.34537 -0.9482)"/><path class="cls-12" d="M157.79254,7.92485c.02021,3.70973-5.17227,6.7073-11.59708,6.69588-6.42525-.01142-11.65024-3.02832-11.67045-6.73762-.02021-3.70973,5.17227-6.7073,11.59752-6.69588S157.77233,4.21556,157.79254,7.92485Z" transform="translate(-2.34537 -0.9482)"/><path class="cls-13" d="M169.80878,7.94681c.02017,3.70929-5.17187,6.7073-11.59712,6.69544-6.42525-.01142-11.65024-3.02789-11.67-6.73762-.02025-3.70929,5.1718-6.7073,11.597-6.69588C164.564,1.22062,169.789,4.23708,169.80878,7.94681Z" transform="translate(-2.34537 -0.9482)"/><path class="cls-14" d="M181.82539,7.96834c.01977,3.70973-5.17227,6.7073-11.59752,6.69588-6.42525-.01186-11.6498-3.02832-11.67-6.73762-.02021-3.70973,5.17227-6.70774,11.59708-6.69588C176.58019,1.24215,181.80518,4.25905,181.82539,7.96834Z" transform="translate(-2.34537 -0.9482)"/><path class="cls-15" d="M193.8416,7.99031c.02021,3.70929-5.17223,6.7073-11.59752,6.69544-6.42481-.01142-11.6498-3.02789-11.67-6.73762s5.17227-6.7073,11.59756-6.69588C188.5964,1.26411,193.82139,4.28058,193.8416,7.99031Z" transform="translate(-2.34537 -0.9482)"/><path class="cls-16" d="M205.8578,8.01184c.02025,3.70973-5.17227,6.7073-11.59708,6.69588-6.42525-.01186-11.65024-3.02832-11.67045-6.73806-.01977-3.70929,5.17227-6.7073,11.59752-6.69544C200.613,1.28564,205.83759,4.30254,205.8578,8.01184Z" transform="translate(-2.34537 -0.9482)"/><path class="cls-17" d="M217.874,8.0338c.02021,3.70929-5.17183,6.7073-11.59708,6.69544-6.42525-.01142-11.6502-3.02832-11.67-6.73762-.02021-3.70973,5.17183-6.7073,11.59708-6.69588C212.62925,1.30761,217.85428,4.32407,217.874,8.0338Z" transform="translate(-2.34537 -0.9482)"/><path class="cls-18" d="M229.89065,8.05533c.01977,3.70973-5.17227,6.7073-11.59752,6.69588-6.42525-.01186-11.6498-3.02832-11.67-6.73806-.02017-3.70929,5.17227-6.7073,11.59708-6.69544C224.64545,1.32914,229.87044,4.3456,229.89065,8.05533Z" transform="translate(-2.34537 -0.9482)"/><path class="cls-19" d="M241.90686,8.07686c.02021,3.70973-5.17227,6.70774-11.59748,6.69588-6.42485-.01142-11.64984-3.02832-11.67-6.73762-.02021-3.70973,5.17231-6.7073,11.59752-6.69588C236.66166,1.3511,241.88665,4.36757,241.90686,8.07686Z" transform="translate(-2.34537 -0.9482)"/><path class="cls-20" d="M253.92306,8.09882c.02021,3.70929-5.17227,6.7073-11.59708,6.69588-6.42525-.01186-11.65024-3.02832-11.67045-6.73806-.01977-3.70929,5.17227-6.7073,11.59752-6.69544C248.6783,1.37263,253.90285,4.38909,253.92306,8.09882Z" transform="translate(-2.34537 -0.9482)"/><path class="cls-21" d="M265.93931,8.12035c.02017,3.70973-5.17187,6.7073-11.59712,6.69588s-11.65024-3.02832-11.67-6.73762c-.02025-3.70973,5.17179-6.7073,11.597-6.69588S265.9195,4.41106,265.93931,8.12035Z" transform="translate(-2.34537 -0.9482)"/><path class="cls-22" d="M277.95591,8.14232c.01977,3.70929-5.17227,6.7073-11.59752,6.69544-6.42525-.01142-11.6498-3.02789-11.67-6.73762s5.17227-6.7073,11.59708-6.69588C272.71071,1.41612,277.9357,4.43259,277.95591,8.14232Z" transform="translate(-2.34537 -0.9482)"/><path class="cls-23" d="M289.97212,8.16384c.02021,3.70973-5.17223,6.7073-11.59752,6.69588-6.42481-.01186-11.6498-3.02832-11.67-6.73806-.02021-3.70929,5.17227-6.7073,11.59756-6.69544C284.72692,1.43765,289.95191,4.45455,289.97212,8.16384Z" transform="translate(-2.34537 -0.9482)"/><path class="cls-24" d="M301.98833,8.18581c.02025,3.70929-5.17227,6.7073-11.59708,6.69544-6.42525-.01142-11.65024-3.02832-11.67045-6.73762-.01977-3.70973,5.17227-6.7073,11.59752-6.69588C296.74356,1.45962,301.96812,4.47608,301.98833,8.18581Z" transform="translate(-2.34537 -0.9482)"/><path class="cls-25" d="M313.23977,8.07686c.02021,3.70973-5.17227,6.70774-11.59748,6.69588-6.42485-.01142-11.64984-3.02832-11.67-6.73762-.02021-3.70973,5.17231-6.7073,11.59752-6.69588C307.99457,1.3511,313.21956,4.36757,313.23977,8.07686Z" transform="translate(-2.34537 -0.9482)"/><path class="cls-26" d="M325.256,8.09882c.02021,3.70929-5.17227,6.7073-11.59708,6.69588-6.42525-.01186-11.65024-3.02832-11.67045-6.73806-.01977-3.70929,5.17227-6.7073,11.59752-6.69544C320.01121,1.37263,325.23577,4.38909,325.256,8.09882Z" transform="translate(-2.34537 -0.9482)"/><path class="cls-27" d="M337.27222,8.12035c.02017,3.70973-5.17187,6.7073-11.59712,6.69588s-11.65024-3.02832-11.67-6.73762c-.02025-3.70973,5.17179-6.7073,11.597-6.69588S337.25241,4.41106,337.27222,8.12035Z" transform="translate(-2.34537 -0.9482)"/><path class="cls-28" d="M349.28883,8.14232c.01977,3.70929-5.17227,6.7073-11.59752,6.69544-6.42525-.01142-11.6498-3.02789-11.67-6.73762s5.17227-6.7073,11.59708-6.69588C344.04363,1.41612,349.26862,4.43259,349.28883,8.14232Z" transform="translate(-2.34537 -0.9482)"/><path class="cls-29" d="M361.305,8.16384c.02021,3.70973-5.17223,6.7073-11.59752,6.69588-6.42481-.01186-11.6498-3.02832-11.67-6.73806-.02021-3.70929,5.17227-6.7073,11.59756-6.69544C356.05983,1.43765,361.28482,4.45455,361.305,8.16384Z" transform="translate(-2.34537 -0.9482)"/><path class="cls-30" d="M373.32124,8.18581c.02025,3.70929-5.17227,6.7073-11.59708,6.69544-6.42525-.01142-11.65024-3.02832-11.67045-6.73762-.01977-3.70973,5.17227-6.7073,11.59752-6.69588C368.07648,1.45962,373.301,4.47608,373.32124,8.18581Z" transform="translate(-2.34537 -0.9482)"/></svg>