<svg id="Layer_1" data-name="Layer 1" xmlns="http://www.w3.org/2000/svg" xmlns:xlink="http://www.w3.org/1999/xlink" viewBox="0 0 392.44197 340.57901"><defs><style>.cls-1,.cls-11{opacity:0.5;}.cls-1,.cls-10,.cls-11,.cls-5,.cls-6{isolation:isolate;}.cls-1{fill:url(#linear-gradient);}.cls-2{fill:url(#radial-gradient);}.cls-3{fill:#5351af;}.cls-4{fill:url(#linear-gradient-2);}.cls-5{fill:#0f054c;opacity:0.3;}.cls-10,.cls-6{opacity:0.4;}.cls-6{fill:url(#radial-gradient-2);}.cls-7{fill:url(#linear-gradient-3);}.cls-8{fill:#fff;}.cls-9{fill:url(#linear-gradient-4);}.cls-10{fill:#42e8e0;}.cls-11{fill:url(#linear-gradient-5);}</style><linearGradient id="linear-gradient" x1="274.76117" y1="-115.1895" x2="83.84016" y2="-7.00084" gradientTransform="matrix(1.16118, -0.27917, 0.27917, -1.48354, 68.99204, 219.23865)" gradientUnits="userSpaceOnUse"><stop offset="0" stop-opacity="0"/><stop offset="0.3707" stop-color="#060508" stop-opacity="0.145"/><stop offset="0.8635" stop-color="#171220" stop-opacity="0.5546"/><stop offset="1" stop-color="#1d1729" stop-opacity="0.7"/></linearGradient><radialGradient id="radial-gradient" cx="-149.78082" cy="397.99099" r="138.05439" gradientTransform="matrix(0.866, 0.5, 0.8606, -0.4969, -44.24702, 480.34994)" gradientUnits="userSpaceOnUse"><stop offset="0.033" stop-color="#fff"/><stop offset="0.04224" stop-color="#d4ffff" stop-opacity="0.95812"/><stop offset="0.05567" stop-color="#9dffff" stop-opacity="0.90364"/><stop offset="0.0692" stop-color="#6dffff" stop-opacity="0.85664"/><stop offset="0.08253" stop-color="#46ffff" stop-opacity="0.81824"/><stop offset="0.09561" stop-color="#27ffff" stop-opacity="0.78841"/><stop offset="0.10837" stop-color="#1ff" stop-opacity="0.76712"/><stop offset="0.12067" stop-color="#04ffff" stop-opacity="0.75432"/><stop offset="0.13201" stop-color="aqua" stop-opacity="0.75"/><stop offset="0.16751" stop-color="#00cfcf" stop-opacity="0.60927"/><stop offset="0.2109" stop-color="#009f9f" stop-opacity="0.46677"/><stop offset="0.25969" stop-color="#007474" stop-opacity="0.33973"/><stop offset="0.31369" stop-color="#004f4f" stop-opacity="0.23303"/><stop offset="0.37466" stop-color="#003232" stop-opacity="0.14666"/><stop offset="0.44585" stop-color="#001b1b" stop-opacity="0.08036"/><stop offset="0.53387" stop-color="#000c0c" stop-opacity="0.03397"/><stop offset="0.65731" stop-color="#000202" stop-opacity="0.00735"/><stop offset="1" stop-opacity="0"/></radialGradient><linearGradient id="linear-gradient-2" x1="128.64066" y1="125.3528" x2="214.12526" y2="125.3528" gradientTransform="matrix(1, 0, 0, -1, -0.44589, 339.50621)" gradientUnits="userSpaceOnUse"><stop offset="0" stop-color="#bcbeff"/><stop offset="0.15104" stop-color="#a3a7f5"/><stop offset="0.3866" stop-color="#8289e8"/><stop offset="0.6124" stop-color="#6a73df"/><stop offset="0.82211" stop-color="#5c66d9"/><stop offset="1" stop-color="#5761d7"/></linearGradient><radialGradient id="radial-gradient-2" cx="211.96722" cy="112.30031" r="49.67775" gradientTransform="matrix(1, 0, 0, -1, -0.44589, 339.50621)" gradientUnits="userSpaceOnUse"><stop offset="0" stop-color="#42e8e0"/><stop offset="0.03469" stop-color="#3fdcd8"/><stop offset="0.23635" stop-color="#319cae"/><stop offset="0.42861" stop-color="#25668b"/><stop offset="0.60624" stop-color="#1b3c70"/><stop offset="0.7662" stop-color="#151e5c"/><stop offset="0.9028" stop-color="#100c50"/><stop offset="1" stop-color="#0f054c"/></radialGradient><linearGradient id="linear-gradient-3" x1="128.64065" y1="138.31599" x2="214.12525" y2="138.31599" gradientTransform="matrix(1, 0, 0, -1, -0.44589, 339.50621)" gradientUnits="userSpaceOnUse"><stop offset="0" stop-color="#c0bff6"/><stop offset="0.29376" stop-color="#c5c4f7"/><stop offset="0.63992" stop-color="#d3d2f9"/><stop offset="1" stop-color="#e9e9fd"/></linearGradient><linearGradient id="linear-gradient-4" x1="131.74683" y1="139.53344" x2="211.32343" y2="139.53344" xlink:href="#linear-gradient-3"/><linearGradient id="linear-gradient-5" x1="171.53245" y1="339.50621" x2="171.53245" y2="125.81263" gradientTransform="matrix(1, 0, 0, -1, -0.44589, 339.50621)" gradientUnits="userSpaceOnUse"><stop offset="0" stop-opacity="0"/><stop offset="0.15273" stop-color="#010303" stop-opacity="0.01496"/><stop offset="0.28666" stop-color="#040e0e" stop-opacity="0.06116"/><stop offset="0.41353" stop-color="#09201f" stop-opacity="0.13879"/><stop offset="0.53611" stop-color="#103a38" stop-opacity="0.24804"/><stop offset="0.65558" stop-color="#1a5a57" stop-opacity="0.38896"/><stop offset="0.77272" stop-color="#25827e" stop-opacity="0.5618"/><stop offset="0.8864" stop-color="#32b1ab" stop-opacity="0.76363"/><stop offset="0.99759" stop-color="#42e7df" stop-opacity="0.99463"/><stop offset="1" stop-color="#42e8e0"/></linearGradient></defs><title>node-1</title><g id="Layer_1-2" data-name="Layer 1"><polygon class="cls-1" points="332.455 340.579 133.049 225.096 188.466 207.008 189.049 179.751 392.442 303.316 332.455 340.579"/><path class="cls-2" d="M288.11243,276.72465c-65.61832,37.88455-172.34032,37.69171-238.37039-.43054-66.03-38.12271-66.36437-99.73877-.74643-137.62337,65.61839-37.88459,172.34036-37.69172,238.37045.431C353.39649,177.224,353.73038,238.84006,288.11243,276.72465Z" transform="translate(-0.00002)"/><path class="cls-3" d="M153.86141,204.14221c9.43031-5.44463,24.72023-5.44441,34.15086.00031a18.47656,18.47656,0,0,1,3.83948,2.8877c5.33914-5.33192,4.062-12.26773-3.83948-16.82971-9.43063-5.44473-24.72054-5.44482-34.15086-.00021-7.90111,4.56166-9.178,11.49725-3.83905,16.82918A18.47766,18.47766,0,0,1,153.86141,204.14221Z" transform="translate(-0.00002)"/><path class="cls-4" d="M207.34485,200.125a33.57188,33.57188,0,0,0-6.18481-4.51411A51.086,51.086,0,0,0,188.534,190.5695c8.79286,5.57565,8.52556,14.2135-.80608,19.601-9.60921,5.5479-25.189,5.54779-34.79857-.00021-9.01241-5.2034-9.57224-13.43852-1.67993-19.01848a49.55214,49.55214,0,0,0-10.53615,4.4585,33.5641,33.5641,0,0,0-6.18526,4.51463h-6.33324v12.93587h.00011c.00063,6.315,4.17371,12.63014,12.51932,17.44841,16.69208,9.63728,43.755,9.6375,60.4467.00052,8.34563-4.81837,12.51848-11.13361,12.51848-17.44893V200.125Z" transform="translate(-0.00002)"/><path class="cls-5" d="M201.15993,195.61089a51.08382,51.08382,0,0,0-12.62595-5.04137c8.79286,5.57565,8.52556,14.2135-.80608,19.60114a35.26454,35.26454,0,0,1-16.79085,4.15244v23.41432c10.93889.00011,21.87778-2.409,30.22382-7.22762,8.34563-4.81837,12.51848-11.13361,12.51848-17.44893V200.125h-6.3345A33.56871,33.56871,0,0,0,201.15993,195.61089Z" transform="translate(-0.00002)"/><path class="cls-6" d="M201.15993,195.61089a51.08382,51.08382,0,0,0-12.62595-5.04137c8.79286,5.57565,8.52556,14.2135-.80608,19.60114a35.26454,35.26454,0,0,1-16.79085,4.15244v23.41432c10.93889.00011,21.87778-2.409,30.22382-7.22762,8.34563-4.81837,12.51848-11.13361,12.51848-17.44893V200.125h-6.3345A33.56871,33.56871,0,0,0,201.15993,195.61089Z" transform="translate(-0.00002)"/><path class="cls-7" d="M201.16,183.741c-16.69218-9.63728-43.75516-9.6375-60.44681-.00052s-16.69125,25.26173.00093,34.89891,43.755,9.6375,60.4467.00052S217.85211,193.3782,201.16,183.741Zm-13.12787,27.49481c-9.6091,5.5479-25.18893,5.54768-34.79846-.00031s-9.60973-14.543-.00052-20.09091,25.189-5.54779,34.79857.00031S197.64138,205.688,188.03217,211.23585Z" transform="translate(-0.00002)"/><path class="cls-8" d="M201.16088,217.3084c-16.69167,9.637-43.75462,9.63666-60.4467-.00052-8.05287-4.64932-12.21954-10.69223-12.50256-16.78413-.30363,6.5356,3.863,13.12766,12.50256,18.11571,16.69208,9.63718,43.755,9.6375,60.4467.00052,8.6391-4.98775,12.80537-11.57948,12.50172-18.115C213.37958,206.6167,209.21332,212.65929,201.16088,217.3084Z" transform="translate(-0.00002)"/><path class="cls-8" d="M188.03176,189.81338c-9.60951-5.54811-25.18936-5.5482-34.79857-.00031-5.09782,2.94321-7.49052,6.85674-7.17921,10.711.27547-3.41067,2.668-6.77493,7.17921-9.37941,9.60921-5.5479,25.189-5.54779,34.79857.00031,4.5116,2.60469,6.9043,5.96927,7.17975,9.38014C195.52291,196.67064,193.13,192.75691,188.03176,189.81338Z" transform="translate(-0.00002)"/><path class="cls-9" d="M199.22348,183.72952c-15.53857-8.97124-40.73117-8.97144-56.26923-.00052s-15.53773,23.51591.00084,32.487,40.73108,8.97144,56.26912.00052S214.762,192.70065,199.22348,183.72952ZM187.89391,209.675c-9.28064,5.35822-24.32787,5.35811-33.60893-.00031s-9.28116-14.04591-.00043-19.40411,24.32787-5.35811,33.60893.00031S197.17465,204.3168,187.89391,209.675Z" transform="translate(-0.00002)"/><path class="cls-10" d="M187.89391,209.675c-9.28064,5.35822-24.32787,5.35811-33.60893-.00031s-9.28116-14.04591-.00043-19.40411,24.32787-5.35811,33.60893.00031S197.17465,204.3168,187.89391,209.675Z" transform="translate(-0.00002)"/><path class="cls-11" d="M194.83277,198.82121h.01624V0H147.32411V198.99586h.008c-.04272,3.76936,2.26994,7.54684,6.9529,10.42278,9.28107,5.69983,24.32829,5.69994,33.60893.00021C192.64945,206.49847,194.95079,202.64845,194.83277,198.82121Z" transform="translate(-0.00002)"/></g></svg>